<svg width="1262" height="137" viewBox="0 0 1262 137" fill="none" xmlns="http://www.w3.org/2000/svg">
<g filter="url(#filter0_d_4_12)">
<path d="M0.0496094 27V2.24999H87.0496V27H57.6496V126H29.4496V27H0.0496094ZM125.405 76.35V126H97.2051V2.24999H125.405V51.6H165.305V2.24999H193.505V126H165.305V76.35H125.405ZM282.263 2.24999V27H239.663V51.6H280.463V76.35H239.663V101.25H282.263V126H211.463V2.24999H282.263ZM298.475 2.24999H342.725C365.675 2.24999 383.075 14.7 383.075 39C383.075 57.6 372.875 70.05 357.725 74.85L400.325 126H364.475L326.675 77.1V126H298.475V2.24999ZM326.675 57.15H329.975C340.625 57.15 353.375 56.4 353.375 40.95C353.375 25.5 340.625 24.75 329.975 24.75H326.675V57.15ZM400.298 64.05C400.298 27.9 428.648 -5.00679e-06 462.698 -5.00679e-06C497.048 -5.00679e-06 524.948 27.9 524.948 64.05C524.948 100.2 498.248 128.25 462.698 128.25C426.098 128.25 400.298 100.2 400.298 64.05ZM430.748 64.05C430.748 82.5 439.598 100.95 462.698 100.95C485.198 100.95 494.498 82.5 494.498 64.05C494.498 45.6 484.598 27.15 462.698 27.15C440.948 27.15 430.748 45.6 430.748 64.05ZM649.291 56.7V83.55C642.541 114.9 616.441 128.25 592.141 128.25C558.841 128.25 531.841 99.6 531.841 64.2C531.841 28.65 557.341 -5.00679e-06 592.141 -5.00679e-06C613.891 -5.00679e-06 629.041 8.1 639.841 21.15L621.391 41.4C614.191 29.85 604.741 25.5 593.791 25.5C576.391 25.5 562.291 42.75 562.291 64.2C562.291 85.2 576.391 102.3 593.791 102.3C607.291 102.3 620.641 93.6 620.641 78.45H592.141V56.7H649.291ZM732.556 2.24999V27H689.956V51.6H730.756V76.35H689.956V101.25H732.556V126H661.756V2.24999H732.556ZM748.768 2.24999H793.018C815.968 2.24999 833.368 14.7 833.368 39C833.368 57.6 823.168 70.05 808.018 74.85L850.618 126H814.768L776.968 77.1V126H748.768V2.24999ZM776.968 57.15H780.268C790.918 57.15 803.668 56.4 803.668 40.95C803.668 25.5 790.918 24.75 780.268 24.75H776.968V57.15ZM884.341 2.24999V126H856.141V2.24999H884.341ZM896.733 64.05C896.733 27.9 925.083 -5.00679e-06 959.133 -5.00679e-06C993.483 -5.00679e-06 1021.38 27.9 1021.38 64.05C1021.38 100.2 994.683 128.25 959.133 128.25C922.533 128.25 896.733 100.2 896.733 64.05ZM927.183 64.05C927.183 82.5 936.033 100.95 959.133 100.95C981.633 100.95 990.933 82.5 990.933 64.05C990.933 45.6 981.033 27.15 959.133 27.15C937.383 27.15 927.183 45.6 927.183 64.05ZM1028.28 64.05C1028.28 27.9 1056.63 -5.00679e-06 1090.68 -5.00679e-06C1125.03 -5.00679e-06 1152.93 27.9 1152.93 64.05C1152.93 100.2 1126.23 128.25 1090.68 128.25C1054.08 128.25 1028.28 100.2 1028.28 64.05ZM1058.73 64.05C1058.73 82.5 1067.58 100.95 1090.68 100.95C1113.18 100.95 1122.48 82.5 1122.48 64.05C1122.48 45.6 1112.58 27.15 1090.68 27.15C1068.93 27.15 1058.73 45.6 1058.73 64.05ZM1210.97 -5.00679e-06C1233.47 -5.00679e-06 1249.37 11.7 1249.37 11.7L1237.97 34.2C1237.97 34.2 1225.67 25.65 1212.92 25.65C1203.32 25.65 1198.22 30 1198.22 36.75C1198.22 43.65 1209.92 48.6 1224.02 54.6C1237.82 60.45 1252.97 72.15 1252.97 88.35C1252.97 117.9 1230.47 128.25 1206.32 128.25C1177.37 128.25 1159.82 111.9 1159.82 111.9L1173.92 88.2C1173.92 88.2 1190.42 102.15 1204.22 102.15C1210.37 102.15 1222.07 101.55 1222.07 90C1222.07 81 1208.87 76.95 1194.17 69.6C1179.32 62.25 1170.62 50.7 1170.62 37.8C1170.62 14.7 1191.02 -5.00679e-06 1210.97 -5.00679e-06Z" fill="white"/>
<path d="M0.0496094 27H-0.950391V28H0.0496094V27ZM0.0496094 2.24999V1.24999H-0.950391V2.24999H0.0496094ZM87.0496 2.24999H88.0496V1.24999H87.0496V2.24999ZM87.0496 27V28H88.0496V27H87.0496ZM57.6496 27V26H56.6496V27H57.6496ZM57.6496 126V127H58.6496V126H57.6496ZM29.4496 126H28.4496V127H29.4496V126ZM29.4496 27H30.4496V26H29.4496V27ZM1.04961 27V2.24999H-0.950391V27H1.04961ZM0.0496094 3.24999H87.0496V1.24999H0.0496094V3.24999ZM86.0496 2.24999V27H88.0496V2.24999H86.0496ZM87.0496 26H57.6496V28H87.0496V26ZM56.6496 27V126H58.6496V27H56.6496ZM57.6496 125H29.4496V127H57.6496V125ZM30.4496 126V27H28.4496V126H30.4496ZM29.4496 26H0.0496094V28H29.4496V26ZM125.405 76.35V75.35H124.405V76.35H125.405ZM125.405 126V127H126.405V126H125.405ZM97.2051 126H96.2051V127H97.2051V126ZM97.2051 2.24999V1.24999H96.2051V2.24999H97.2051ZM125.405 2.24999H126.405V1.24999H125.405V2.24999ZM125.405 51.6H124.405V52.6H125.405V51.6ZM165.305 51.6V52.6H166.305V51.6H165.305ZM165.305 2.24999V1.24999H164.305V2.24999H165.305ZM193.505 2.24999H194.505V1.24999H193.505V2.24999ZM193.505 126V127H194.505V126H193.505ZM165.305 126H164.305V127H165.305V126ZM165.305 76.35H166.305V75.35H165.305V76.35ZM124.405 76.35V126H126.405V76.35H124.405ZM125.405 125H97.2051V127H125.405V125ZM98.2051 126V2.24999H96.2051V126H98.2051ZM97.2051 3.24999H125.405V1.24999H97.2051V3.24999ZM124.405 2.24999V51.6H126.405V2.24999H124.405ZM125.405 52.6H165.305V50.6H125.405V52.6ZM166.305 51.6V2.24999H164.305V51.6H166.305ZM165.305 3.24999H193.505V1.24999H165.305V3.24999ZM192.505 2.24999V126H194.505V2.24999H192.505ZM193.505 125H165.305V127H193.505V125ZM166.305 126V76.35H164.305V126H166.305ZM165.305 75.35H125.405V77.35H165.305V75.35ZM282.263 2.24999H283.263V1.24999H282.263V2.24999ZM282.263 27V28H283.263V27H282.263ZM239.663 27V26H238.663V27H239.663ZM239.663 51.6H238.663V52.6H239.663V51.6ZM280.463 51.6H281.463V50.6H280.463V51.6ZM280.463 76.35V77.35H281.463V76.35H280.463ZM239.663 76.35V75.35H238.663V76.35H239.663ZM239.663 101.25H238.663V102.25H239.663V101.25ZM282.263 101.25H283.263V100.25H282.263V101.25ZM282.263 126V127H283.263V126H282.263ZM211.463 126H210.463V127H211.463V126ZM211.463 2.24999V1.24999H210.463V2.24999H211.463ZM281.263 2.24999V27H283.263V2.24999H281.263ZM282.263 26H239.663V28H282.263V26ZM238.663 27V51.6H240.663V27H238.663ZM239.663 52.6H280.463V50.6H239.663V52.6ZM279.463 51.6V76.35H281.463V51.6H279.463ZM280.463 75.35H239.663V77.35H280.463V75.35ZM238.663 76.35V101.25H240.663V76.35H238.663ZM239.663 102.25H282.263V100.25H239.663V102.25ZM281.263 101.25V126H283.263V101.25H281.263ZM282.263 125H211.463V127H282.263V125ZM212.463 126V2.24999H210.463V126H212.463ZM211.463 3.24999H282.263V1.24999H211.463V3.24999ZM298.475 2.24999V1.24999H297.475V2.24999H298.475ZM357.725 74.85L357.423 73.8967L356.004 74.3463L356.956 75.49L357.725 74.85ZM400.325 126V127H402.459L401.093 125.36L400.325 126ZM364.475 126L363.683 126.612L363.984 127H364.475V126ZM326.675 77.1L327.466 76.4884L325.675 74.1713V77.1H326.675ZM326.675 126V127H327.675V126H326.675ZM298.475 126H297.475V127H298.475V126ZM326.675 57.15H325.675V58.15H326.675V57.15ZM326.675 24.75V23.75H325.675V24.75H326.675ZM298.475 3.24999H342.725V1.24999H298.475V3.24999ZM342.725 3.24999C354.029 3.24999 363.865 6.31641 370.857 12.2737C377.828 18.2123 382.075 27.1082 382.075 39H384.075C384.075 26.5918 379.621 17.1127 372.154 10.7513C364.709 4.40857 354.37 1.24999 342.725 1.24999V3.24999ZM382.075 39C382.075 57.1599 372.161 69.2271 357.423 73.8967L358.027 75.8033C373.588 70.8729 384.075 58.0401 384.075 39H382.075ZM356.956 75.49L399.556 126.64L401.093 125.36L358.493 74.21L356.956 75.49ZM400.325 125H364.475V127H400.325V125ZM365.266 125.388L327.466 76.4884L325.883 77.7116L363.683 126.612L365.266 125.388ZM325.675 77.1V126H327.675V77.1H325.675ZM326.675 125H298.475V127H326.675V125ZM299.475 126V2.24999H297.475V126H299.475ZM326.675 58.15H329.975V56.15H326.675V58.15ZM329.975 58.15C335.271 58.15 341.343 57.9763 346.093 55.7492C348.498 54.6214 350.59 52.9577 352.071 50.5182C353.549 48.0839 354.375 44.9499 354.375 40.95H352.375C352.375 44.6751 351.607 47.4286 350.361 49.4803C349.119 51.5266 347.357 52.9474 345.244 53.9383C340.956 55.9487 335.328 56.15 329.975 56.15V58.15ZM354.375 40.95C354.375 36.9501 353.549 33.8161 352.071 31.3818C350.59 28.9423 348.498 27.2786 346.093 26.1508C341.343 23.9237 335.271 23.75 329.975 23.75V25.75C335.328 25.75 340.956 25.9513 345.244 27.9617C347.357 28.9526 349.119 30.3734 350.361 32.4197C351.607 34.4714 352.375 37.2249 352.375 40.95H354.375ZM329.975 23.75H326.675V25.75H329.975V23.75ZM325.675 24.75V57.15H327.675V24.75H325.675ZM401.298 64.05C401.298 28.4399 429.212 0.999995 462.698 0.999995V-1.00001C428.083 -1.00001 399.298 27.3601 399.298 64.05H401.298ZM462.698 0.999995C496.477 0.999995 523.948 28.4335 523.948 64.05H525.948C525.948 27.3664 497.618 -1.00001 462.698 -1.00001V0.999995ZM523.948 64.05C523.948 99.6824 497.661 127.25 462.698 127.25V129.25C498.834 129.25 525.948 100.718 525.948 64.05H523.948ZM462.698 127.25C426.692 127.25 401.298 99.6905 401.298 64.05H399.298C399.298 100.709 425.504 129.25 462.698 129.25V127.25ZM429.748 64.05C429.748 73.4148 431.991 82.8703 437.255 90.0121C442.551 97.1964 450.842 101.95 462.698 101.95V99.95C451.453 99.95 443.769 95.4786 438.865 88.8254C433.93 82.1297 431.748 73.1352 431.748 64.05H429.748ZM462.698 101.95C474.261 101.95 482.51 97.1906 487.838 90.0149C493.138 82.8778 495.498 73.4244 495.498 64.05H493.498C493.498 73.1256 491.208 82.1222 486.232 88.8226C481.286 95.4844 473.635 99.95 462.698 99.95V101.95ZM495.498 64.05C495.498 54.6629 492.982 45.211 487.609 38.0795C482.211 30.9146 473.967 26.15 462.698 26.15V28.15C473.328 28.15 480.984 32.6104 486.011 39.283C491.064 45.989 493.498 54.9871 493.498 64.05H495.498ZM462.698 26.15C451.502 26.15 443.223 30.9151 437.771 38.0754C432.342 45.2046 429.748 54.6567 429.748 64.05H431.748C431.748 54.9933 434.254 45.9954 439.362 39.2871C444.447 32.6098 452.143 28.15 462.698 28.15V26.15ZM649.291 56.7H650.291V55.7H649.291V56.7ZM649.291 83.55L650.268 83.7605L650.291 83.6564V83.55H649.291ZM639.841 21.15L640.58 21.8235L641.165 21.1815L640.611 20.5124L639.841 21.15ZM621.391 41.4L620.542 41.929L621.241 43.0495L622.13 42.0735L621.391 41.4ZM620.641 78.45H621.641V77.45H620.641V78.45ZM592.141 78.45H591.141V79.45H592.141V78.45ZM592.141 56.7V55.7H591.141V56.7H592.141ZM648.291 56.7V83.55H650.291V56.7H648.291ZM648.313 83.3395C641.686 114.116 616.095 127.25 592.141 127.25V129.25C616.786 129.25 643.395 115.684 650.268 83.7605L648.313 83.3395ZM592.141 127.25C559.449 127.25 532.841 99.1051 532.841 64.2H530.841C530.841 100.095 558.233 129.25 592.141 129.25V127.25ZM532.841 64.2C532.841 29.1265 557.966 0.999995 592.141 0.999995V-1.00001C556.715 -1.00001 530.841 28.1735 530.841 64.2H532.841ZM592.141 0.999995C613.599 0.999995 628.464 8.97181 639.07 21.7876L640.611 20.5124C629.617 7.22819 614.182 -1.00001 592.141 -1.00001V0.999995ZM639.101 20.4765L620.651 40.7265L622.13 42.0735L640.58 21.8235L639.101 20.4765ZM622.239 40.871C618.563 34.9737 614.281 30.8674 609.476 28.2413C604.672 25.6155 599.401 24.5 593.791 24.5V26.5C599.13 26.5 604.059 27.5595 608.517 29.9962C612.975 32.4326 617.018 36.2763 620.542 41.929L622.239 40.871ZM593.791 24.5C575.657 24.5 561.291 42.3986 561.291 64.2H563.291C563.291 43.1014 577.124 26.5 593.791 26.5V24.5ZM561.291 64.2C561.291 85.565 575.668 103.3 593.791 103.3V101.3C577.113 101.3 563.291 84.835 563.291 64.2H561.291ZM593.791 103.3C607.635 103.3 621.641 94.3391 621.641 78.45H619.641C619.641 92.8609 606.946 101.3 593.791 101.3V103.3ZM620.641 77.45H592.141V79.45H620.641V77.45ZM593.141 78.45V56.7H591.141V78.45H593.141ZM592.141 57.7H649.291V55.7H592.141V57.7ZM732.556 2.24999H733.556V1.24999H732.556V2.24999ZM732.556 27V28H733.556V27H732.556ZM689.956 27V26H688.956V27H689.956ZM689.956 51.6H688.956V52.6H689.956V51.6ZM730.756 51.6H731.756V50.6H730.756V51.6ZM730.756 76.35V77.35H731.756V76.35H730.756ZM689.956 76.35V75.35H688.956V76.35H689.956ZM689.956 101.25H688.956V102.25H689.956V101.25ZM732.556 101.25H733.556V100.25H732.556V101.25ZM732.556 126V127H733.556V126H732.556ZM661.756 126H660.756V127H661.756V126ZM661.756 2.24999V1.24999H660.756V2.24999H661.756ZM731.556 2.24999V27H733.556V2.24999H731.556ZM732.556 26H689.956V28H732.556V26ZM688.956 27V51.6H690.956V27H688.956ZM689.956 52.6H730.756V50.6H689.956V52.6ZM729.756 51.6V76.35H731.756V51.6H729.756ZM730.756 75.35H689.956V77.35H730.756V75.35ZM688.956 76.35V101.25H690.956V76.35H688.956ZM689.956 102.25H732.556V100.25H689.956V102.25ZM731.556 101.25V126H733.556V101.25H731.556ZM732.556 125H661.756V127H732.556V125ZM662.756 126V2.24999H660.756V126H662.756ZM661.756 3.24999H732.556V1.24999H661.756V3.24999ZM748.768 2.24999V1.24999H747.768V2.24999H748.768ZM808.018 74.85L807.716 73.8967L806.297 74.3463L807.249 75.49L808.018 74.85ZM850.618 126V127H852.752L851.386 125.36L850.618 126ZM814.768 126L813.976 126.612L814.277 127H814.768V126ZM776.968 77.1L777.759 76.4884L775.968 74.1713V77.1H776.968ZM776.968 126V127H777.968V126H776.968ZM748.768 126H747.768V127H748.768V126ZM776.968 57.15H775.968V58.15H776.968V57.15ZM776.968 24.75V23.75H775.968V24.75H776.968ZM748.768 3.24999H793.018V1.24999H748.768V3.24999ZM793.018 3.24999C804.322 3.24999 814.158 6.31641 821.15 12.2737C828.121 18.2123 832.368 27.1082 832.368 39H834.368C834.368 26.5918 829.914 17.1127 822.447 10.7513C815.002 4.40857 804.663 1.24999 793.018 1.24999V3.24999ZM832.368 39C832.368 57.1599 822.454 69.2271 807.716 73.8967L808.32 75.8033C823.881 70.8729 834.368 58.0401 834.368 39H832.368ZM807.249 75.49L849.849 126.64L851.386 125.36L808.786 74.21L807.249 75.49ZM850.618 125H814.768V127H850.618V125ZM815.559 125.388L777.759 76.4884L776.176 77.7116L813.976 126.612L815.559 125.388ZM775.968 77.1V126H777.968V77.1H775.968ZM776.968 125H748.768V127H776.968V125ZM749.768 126V2.24999H747.768V126H749.768ZM776.968 58.15H780.268V56.15H776.968V58.15ZM780.268 58.15C785.564 58.15 791.636 57.9763 796.386 55.7492C798.791 54.6214 800.883 52.9577 802.364 50.5182C803.842 48.0839 804.668 44.9499 804.668 40.95H802.668C802.668 44.6751 801.9 47.4286 800.654 49.4803C799.412 51.5266 797.65 52.9474 795.537 53.9383C791.249 55.9487 785.621 56.15 780.268 56.15V58.15ZM804.668 40.95C804.668 36.9501 803.842 33.8161 802.364 31.3818C800.883 28.9423 798.791 27.2786 796.386 26.1508C791.636 23.9237 785.564 23.75 780.268 23.75V25.75C785.621 25.75 791.249 25.9513 795.537 27.9617C797.65 28.9526 799.412 30.3734 800.654 32.4197C801.9 34.4714 802.668 37.2249 802.668 40.95H804.668ZM780.268 23.75H776.968V25.75H780.268V23.75ZM775.968 24.75V57.15H777.968V24.75H775.968ZM884.341 2.24999H885.341V1.24999H884.341V2.24999ZM884.341 126V127H885.341V126H884.341ZM856.141 126H855.141V127H856.141V126ZM856.141 2.24999V1.24999H855.141V2.24999H856.141ZM883.341 2.24999V126H885.341V2.24999H883.341ZM884.341 125H856.141V127H884.341V125ZM857.141 126V2.24999H855.141V126H857.141ZM856.141 3.24999H884.341V1.24999H856.141V3.24999ZM897.733 64.05C897.733 28.4399 925.648 0.999995 959.133 0.999995V-1.00001C924.519 -1.00001 895.733 27.3601 895.733 64.05H897.733ZM959.133 0.999995C992.912 0.999995 1020.38 28.4335 1020.38 64.05H1022.38C1022.38 27.3664 994.054 -1.00001 959.133 -1.00001V0.999995ZM1020.38 64.05C1020.38 99.6824 994.097 127.25 959.133 127.25V129.25C995.27 129.25 1022.38 100.718 1022.38 64.05H1020.38ZM959.133 127.25C923.127 127.25 897.733 99.6905 897.733 64.05H895.733C895.733 100.709 921.939 129.25 959.133 129.25V127.25ZM926.183 64.05C926.183 73.4148 928.426 82.8703 933.691 90.0121C938.987 97.1964 947.278 101.95 959.133 101.95V99.95C947.888 99.95 940.205 95.4786 935.301 88.8254C930.365 82.1297 928.183 73.1352 928.183 64.05H926.183ZM959.133 101.95C970.696 101.95 978.945 97.1906 984.274 90.0149C989.573 82.8778 991.933 73.4244 991.933 64.05H989.933C989.933 73.1256 987.643 82.1222 982.668 88.8226C977.721 95.4844 970.07 99.95 959.133 99.95V101.95ZM991.933 64.05C991.933 54.6629 989.417 45.211 984.044 38.0795C978.646 30.9146 970.403 26.15 959.133 26.15V28.15C969.763 28.15 977.42 32.6104 982.447 39.283C987.499 45.989 989.933 54.9871 989.933 64.05H991.933ZM959.133 26.15C947.937 26.15 939.659 30.9151 934.206 38.0754C928.777 45.2046 926.183 54.6567 926.183 64.05H928.183C928.183 54.9933 930.689 45.9954 935.798 39.2871C940.882 32.6098 948.579 28.15 959.133 28.15V26.15ZM1029.28 64.05C1029.28 28.4399 1057.19 0.999995 1090.68 0.999995V-1.00001C1056.06 -1.00001 1027.28 27.3601 1027.28 64.05H1029.28ZM1090.68 0.999995C1124.46 0.999995 1151.93 28.4335 1151.93 64.05H1153.93C1153.93 27.3664 1125.6 -1.00001 1090.68 -1.00001V0.999995ZM1151.93 64.05C1151.93 99.6824 1125.64 127.25 1090.68 127.25V129.25C1126.81 129.25 1153.93 100.718 1153.93 64.05H1151.93ZM1090.68 127.25C1054.67 127.25 1029.28 99.6905 1029.28 64.05H1027.28C1027.28 100.709 1053.48 129.25 1090.68 129.25V127.25ZM1057.73 64.05C1057.73 73.4148 1059.97 82.8703 1065.23 90.0121C1070.53 97.1964 1078.82 101.95 1090.68 101.95V99.95C1079.43 99.95 1071.75 95.4786 1066.84 88.8254C1061.91 82.1297 1059.73 73.1352 1059.73 64.05H1057.73ZM1090.68 101.95C1102.24 101.95 1110.49 97.1906 1115.82 90.0149C1121.12 82.8778 1123.48 73.4244 1123.48 64.05H1121.48C1121.48 73.1256 1119.19 82.1222 1114.21 88.8226C1109.26 95.4844 1101.61 99.95 1090.68 99.95V101.95ZM1123.48 64.05C1123.48 54.6629 1120.96 45.211 1115.59 38.0795C1110.19 30.9146 1101.95 26.15 1090.68 26.15V28.15C1101.31 28.15 1108.96 32.6104 1113.99 39.283C1119.04 45.989 1121.48 54.9871 1121.48 64.05H1123.48ZM1090.68 26.15C1079.48 26.15 1071.2 30.9151 1065.75 38.0754C1060.32 45.2046 1057.73 54.6567 1057.73 64.05H1059.73C1059.73 54.9933 1062.23 45.9954 1067.34 39.2871C1072.43 32.6098 1080.12 28.15 1090.68 28.15V26.15ZM1249.37 11.7L1250.26 12.152L1250.64 11.3965L1249.96 10.8946L1249.37 11.7ZM1237.97 34.2L1237.4 35.0211L1238.34 35.6769L1238.86 34.652L1237.97 34.2ZM1224.02 54.6L1223.63 55.5202L1223.63 55.5207L1224.02 54.6ZM1159.82 111.9L1158.96 111.389L1158.55 112.082L1159.14 112.632L1159.82 111.9ZM1173.92 88.2L1174.56 87.4363L1173.66 86.6742L1173.06 87.6887L1173.92 88.2ZM1194.17 69.6L1194.62 68.7056L1194.61 68.7038L1194.17 69.6ZM1210.97 0.999995C1222.05 0.999995 1231.51 3.88112 1238.21 6.76835C1241.56 8.21121 1244.21 9.65299 1246.02 10.7311C1246.93 11.27 1247.62 11.7177 1248.09 12.0287C1248.32 12.1842 1248.49 12.3054 1248.61 12.3868C1248.67 12.4275 1248.71 12.4582 1248.74 12.4782C1248.75 12.4882 1248.76 12.4955 1248.77 12.5001C1248.77 12.5024 1248.77 12.504 1248.78 12.5049C1248.78 12.5053 1248.78 12.5056 1248.78 12.5057C1248.78 12.5057 1248.78 12.5057 1248.78 12.5057C1248.78 12.5056 1248.78 12.5054 1249.37 11.7C1249.96 10.8946 1249.96 10.8943 1249.96 10.894C1249.96 10.8939 1249.96 10.8936 1249.96 10.8932C1249.96 10.8926 1249.96 10.8918 1249.96 10.8909C1249.95 10.8889 1249.95 10.8863 1249.95 10.8829C1249.94 10.8763 1249.92 10.8668 1249.91 10.8547C1249.87 10.8304 1249.82 10.7954 1249.76 10.7504C1249.63 10.6604 1249.44 10.5303 1249.2 10.3658C1248.71 10.037 1247.98 9.57059 1247.04 9.01265C1245.17 7.897 1242.44 6.41378 1239 4.93164C1232.13 1.96887 1222.39 -1.00001 1210.97 -1.00001V0.999995ZM1248.48 11.248L1237.08 33.748L1238.86 34.652L1250.26 12.152L1248.48 11.248ZM1237.97 34.2C1238.54 33.3789 1238.54 33.3787 1238.54 33.3785C1238.54 33.3784 1238.54 33.3782 1238.54 33.378C1238.54 33.3775 1238.54 33.3769 1238.54 33.3762C1238.53 33.3748 1238.53 33.3729 1238.53 33.3705C1238.52 33.3657 1238.51 33.3588 1238.5 33.35C1238.47 33.3323 1238.43 33.3068 1238.39 33.2739C1238.29 33.2083 1238.14 33.1132 1237.96 32.9931C1237.59 32.7528 1237.05 32.4119 1236.36 32.0038C1234.98 31.1881 1233.01 30.102 1230.64 29.0158C1225.91 26.8508 1219.5 24.65 1212.92 24.65V26.65C1219.09 26.65 1225.2 28.7242 1229.81 30.8342C1232.11 31.8855 1234.01 32.9369 1235.34 33.7243C1236 34.1178 1236.52 34.4448 1236.87 34.6721C1237.05 34.7858 1237.18 34.8744 1237.27 34.934C1237.31 34.9638 1237.35 34.9863 1237.37 35.001C1237.38 35.0083 1237.39 35.0137 1237.39 35.0171C1237.4 35.0188 1237.4 35.02 1237.4 35.0206C1237.4 35.021 1237.4 35.0212 1237.4 35.0213C1237.4 35.0213 1237.4 35.0213 1237.4 35.0213C1237.4 35.0212 1237.4 35.0211 1237.97 34.2ZM1212.92 24.65C1207.98 24.65 1204.06 25.7662 1201.35 27.8804C1198.61 30.0195 1197.22 33.0981 1197.22 36.75H1199.22C1199.22 33.6518 1200.38 31.1805 1202.58 29.4571C1204.82 27.7088 1208.25 26.65 1212.92 26.65V24.65ZM1197.22 36.75C1197.22 38.7818 1198.09 40.6078 1199.51 42.2591C1200.92 43.9003 1202.93 45.417 1205.31 46.867C1210.08 49.763 1216.6 52.5309 1223.63 55.5202L1224.41 53.6798C1217.34 50.6691 1210.96 47.962 1206.35 45.158C1204.05 43.7579 1202.24 42.3685 1201.03 40.9534C1199.81 39.5485 1199.22 38.1682 1199.22 36.75H1197.22ZM1223.63 55.5207C1230.44 58.4087 1237.56 62.7292 1242.95 68.2901C1248.34 73.8463 1251.97 80.5847 1251.97 88.35H1253.97C1253.97 79.9153 1250.02 72.7037 1244.39 66.8974C1238.76 61.0958 1231.4 56.6413 1224.41 53.6793L1223.63 55.5207ZM1251.97 88.35C1251.97 102.835 1246.47 112.496 1238.11 118.572C1229.7 124.685 1218.27 127.25 1206.32 127.25V129.25C1218.51 129.25 1230.41 126.64 1239.29 120.19C1248.21 113.704 1253.97 103.415 1253.97 88.35H1251.97ZM1206.32 127.25C1192.04 127.25 1180.57 123.217 1172.67 119.184C1168.72 117.168 1165.66 115.154 1163.6 113.647C1162.57 112.894 1161.79 112.269 1161.27 111.834C1161.01 111.617 1160.81 111.448 1160.69 111.334C1160.62 111.277 1160.57 111.234 1160.54 111.206C1160.53 111.192 1160.52 111.182 1160.51 111.176C1160.51 111.173 1160.5 111.17 1160.5 111.169C1160.5 111.168 1160.5 111.168 1160.5 111.168C1160.5 111.168 1160.5 111.168 1160.5 111.168C1160.5 111.168 1160.5 111.168 1159.82 111.9C1159.14 112.632 1159.14 112.632 1159.14 112.632C1159.14 112.633 1159.14 112.633 1159.14 112.634C1159.14 112.634 1159.14 112.635 1159.14 112.637C1159.15 112.64 1159.15 112.643 1159.16 112.648C1159.17 112.657 1159.18 112.67 1159.2 112.687C1159.24 112.721 1159.29 112.77 1159.36 112.833C1159.5 112.959 1159.71 113.141 1159.99 113.371C1160.54 113.83 1161.36 114.482 1162.42 115.262C1164.56 116.821 1167.7 118.894 1171.76 120.966C1179.87 125.108 1191.65 129.25 1206.32 129.25V127.25ZM1160.68 112.411L1174.78 88.7113L1173.06 87.6887L1158.96 111.389L1160.68 112.411ZM1173.92 88.2C1173.27 88.9636 1173.27 88.9638 1173.27 88.9641C1173.27 88.9642 1173.27 88.9645 1173.27 88.9648C1173.28 88.9654 1173.28 88.9662 1173.28 88.9672C1173.28 88.9693 1173.28 88.9722 1173.29 88.9759C1173.3 88.9833 1173.31 88.994 1173.33 89.0079C1173.36 89.0357 1173.41 89.0764 1173.47 89.129C1173.6 89.2341 1173.79 89.3871 1174.03 89.5811C1174.52 89.969 1175.23 90.5212 1176.12 91.1828C1177.9 92.5052 1180.42 94.2689 1183.38 96.0339C1189.26 99.5397 1197.03 103.15 1204.22 103.15V101.15C1197.6 101.15 1190.23 97.7853 1184.41 94.3161C1181.52 92.5936 1179.05 90.8698 1177.31 89.5766C1176.44 88.9304 1175.75 88.3927 1175.28 88.0177C1175.04 87.8302 1174.86 87.6835 1174.74 87.5844C1174.68 87.5348 1174.64 87.4971 1174.61 87.4721C1174.59 87.4596 1174.58 87.4504 1174.57 87.4444C1174.57 87.4414 1174.57 87.4392 1174.57 87.4378C1174.57 87.4372 1174.57 87.4367 1174.56 87.4365C1174.56 87.4363 1174.56 87.4363 1174.56 87.4362C1174.56 87.4363 1174.56 87.4363 1173.92 88.2ZM1204.22 103.15C1207.29 103.15 1211.94 103.008 1215.85 101.324C1217.82 100.475 1219.64 99.2156 1220.96 97.35C1222.29 95.4772 1223.07 93.0646 1223.07 90H1221.07C1221.07 92.7104 1220.39 94.704 1219.33 96.1922C1218.27 97.6875 1216.78 98.7441 1215.05 99.4881C1211.57 100.992 1207.29 101.15 1204.22 101.15V103.15ZM1223.07 90C1223.07 84.9186 1219.31 81.3979 1214.14 78.3218C1211.53 76.7664 1208.46 75.2719 1205.16 73.7177C1201.84 72.1572 1198.28 70.5359 1194.62 68.7056L1193.72 70.4944C1197.41 72.3391 1201.01 73.9803 1204.3 75.5276C1207.61 77.0812 1210.6 78.5398 1213.12 80.0407C1218.22 83.0771 1221.07 86.0814 1221.07 90H1223.07ZM1194.61 68.7038C1179.98 61.4601 1171.62 50.197 1171.62 37.8H1169.62C1169.62 51.203 1178.66 63.0399 1193.73 70.4962L1194.61 68.7038ZM1171.62 37.8C1171.62 15.3843 1191.43 0.999995 1210.97 0.999995V-1.00001C1190.61 -1.00001 1169.62 14.0157 1169.62 37.8H1171.62Z" fill="black"/>
</g>
<defs>
<filter id="filter0_d_4_12" x="0.0496216" y="0" width="1261.92" height="136.25" filterUnits="userSpaceOnUse" color-interpolation-filters="sRGB">
<feFlood flood-opacity="0" result="BackgroundImageFix"/>
<feColorMatrix in="SourceAlpha" type="matrix" values="0 0 0 0 0 0 0 0 0 0 0 0 0 0 0 0 0 0 127 0" result="hardAlpha"/>
<feOffset dx="5" dy="4"/>
<feGaussianBlur stdDeviation="2"/>
<feComposite in2="hardAlpha" operator="out"/>
<feColorMatrix type="matrix" values="0 0 0 0 0 0 0 0 0 0 0 0 0 0 0 0 0 0 0.56 0"/>
<feBlend mode="normal" in2="BackgroundImageFix" result="effect1_dropShadow_4_12"/>
<feBlend mode="normal" in="SourceGraphic" in2="effect1_dropShadow_4_12" result="shape"/>
</filter>
</defs>
</svg>
